<svg width="74" height="129" viewBox="0 0 74 129" fill="none" xmlns="http://www.w3.org/2000/svg">
<path d="M18.6239 64.5781C18.9922 64.8663 19.229 65.0366 19.4263 65.2331C36.6984 82.4214 53.9574 99.6228 71.2427 116.811C72.9001 118.449 73.7947 120.348 73.5184 122.693C73.1895 125.379 71.7031 127.253 69.2037 128.235C66.678 129.231 64.2575 128.943 62.2054 127.108C60.4821 125.563 58.8904 123.873 57.2461 122.235C38.7506 103.854 20.2551 85.4608 1.77275 67.0672C0.167879 65.4689 0.154725 63.6741 1.7596 62.0758C21.7021 42.228 41.6709 22.4064 61.574 2.51936C65.4151 -1.31919 71.8083 0.370823 73.2553 5.21814C73.9657 7.58939 73.5184 9.77723 71.8478 11.6245C70.7822 12.8166 69.6115 13.904 68.4802 15.0307C52.1157 31.3543 35.7513 47.6518 19.3737 63.9492C19.1896 64.1326 18.9791 64.2899 18.6239 64.5781Z" fill="black"/>
</svg>
