<svg width="110" height="110" viewBox="0 0 110 110" fill="none" xmlns="http://www.w3.org/2000/svg">
<circle cx="55" cy="55" r="55" fill="#EAF7FF"/>
<mask id="mask0" mask-type="alpha" maskUnits="userSpaceOnUse" x="0" y="0" width="110" height="110">
<circle cx="55" cy="55" r="55" fill="#FAFF00"/>
</mask>
<g mask="url(#mask0)">
<path fill-rule="evenodd" clip-rule="evenodd" d="M72.0043 38.3966C72.0043 40.2726 71.9338 42.0701 71.8102 43.7761C72.1331 43.7242 72.4644 43.6973 72.8019 43.6973C76.226 43.6973 79.0019 46.4731 79.0019 49.8973C79.0019 53.3214 76.226 56.0973 72.8019 56.0973C71.7794 56.0973 70.8146 55.8497 69.9644 55.4113C68.8676 59.139 66.2392 61.7965 62.6043 63.9966L61.9043 64.3966C61.7592 64.4815 61.6126 64.5636 61.4645 64.6428L62.5885 81.7624L77.3039 85.7973C67.8039 94.6973 44.1039 101.997 32.0039 86.4973L31.0039 86.0973L47.5272 81.7659L48.456 64.6254L48.4043 64.5966C44.3926 62.3996 41.5669 59.564 40.4502 55.5669C39.7309 55.8858 38.9385 56.0731 38.1038 56.0976C34.7038 56.1976 31.9038 53.4976 31.8038 50.0976C31.7038 46.6976 34.4038 43.8976 37.8038 43.7976C38.1127 43.7885 38.4166 43.8026 38.714 43.8381C38.454 40.7312 38.4043 38.5966 38.4043 38.5966C38.4043 38.5966 37.0043 20.5966 55.1043 20.7966C73.2043 20.9966 72.0043 38.3966 72.0043 38.3966Z" fill="#E8B499"/>
<path d="M83.8031 138.796L82.7031 126.896L84.6031 107.396" stroke="black" stroke-width="0.9528" stroke-miterlimit="10" stroke-linecap="round" stroke-linejoin="round"/>
<path d="M25.4031 139.798L26.7031 126.898L25.2031 107.598" stroke="black" stroke-width="0.9528" stroke-miterlimit="10" stroke-linecap="round" stroke-linejoin="round"/>
<path d="M34.7148 49.0973C34.7148 49.0973 37.1148 47.8973 39.5148 52.1973" stroke="#C47268" stroke-width="0.6887" stroke-miterlimit="10" stroke-linecap="round" stroke-linejoin="round"/>
<path d="M76.5125 48.9971C76.5125 48.9971 74.0125 47.8971 71.8125 52.1971" stroke="#C47268" stroke-width="0.6887" stroke-miterlimit="10" stroke-linecap="round" stroke-linejoin="round"/>
<path d="M54.2656 47.6387L54.2557 50.047L55.9579 50.0955" stroke="#B9635E" stroke-width="0.6612" stroke-miterlimit="10" stroke-linecap="round" stroke-linejoin="round"/>
<path d="M42.5103 38.5797L51.7151 37.7789C51.7151 37.7789 50.9194 35.4005 47.1725 35.7753C43.3259 36.1415 42.5103 38.5797 42.5103 38.5797Z" fill="black"/>
<path d="M67.7948 38.6849L58.6385 37.7834C58.6385 37.7834 59.4454 35.4449 63.2309 35.7761C66.9081 36.1982 67.7948 38.6849 67.7948 38.6849Z" fill="black"/>
<path d="M49.643 44.2247C49.6729 45.0304 49.0142 45.6754 48.2172 45.6057C47.4202 45.536 46.7665 44.9769 46.8362 44.1799C46.8063 43.3743 47.465 42.7292 48.262 42.7989C48.9681 42.7603 49.6131 43.4191 49.643 44.2247Z" fill="#1E0B02"/>
<path d="M63.4955 44.2314C63.5254 45.0371 62.8667 45.6822 62.0697 45.6124C61.264 45.6423 60.619 44.9836 60.6887 44.1866C60.6588 43.381 61.3175 42.7359 62.1145 42.8057C62.8118 42.8667 63.4656 43.4258 63.4955 44.2314Z" fill="#1E0B02"/>
<path d="M49.9294 53.5841C49.9294 53.5841 53.8569 55.7346 60.169 53.5765" stroke="black" stroke-width="0.6612" stroke-miterlimit="10" stroke-linecap="round" stroke-linejoin="round"/>
<path d="M61.2992 64.6973C61.1902 65.0333 61.0861 65.3641 60.977 65.6842C60.5854 66.8204 60.1195 67.914 59.4701 68.9116C58.9893 69.6531 58.4242 70.3039 57.6757 70.752C57.0362 71.1361 56.3521 71.2535 55.6284 71.1735C54.4288 71.0455 53.4226 70.4533 52.5204 69.6371C51.6083 68.8156 50.8697 67.834 50.2253 66.7724C49.8932 66.2176 49.5908 65.6468 49.2785 65.0867C49.2488 65.0333 49.229 64.98 49.1992 64.9213C53.2639 66.8951 57.2841 66.7831 61.2992 64.6973Z" fill="black"/>
<path fill-rule="evenodd" clip-rule="evenodd" d="M84.1283 139.708L104.953 128.098C104.953 128.098 98.5531 114.098 93.3531 100.698C89.3246 90.3164 82.3551 87.2575 79.4194 86.4061C75.9253 85.1515 72.2016 84.7969 72.2016 84.7969L54.7016 86.5969L37.2016 84.7969C37.2016 84.7969 34.0377 85.0982 30.8062 86.1279C29.3785 86.3764 20.4753 88.3962 15.7016 100.698C10.5016 114.098 4.10156 128.098 4.10156 128.098L25.2392 139.882L19.1016 183.397L90.7016 183.797L84.1283 139.708Z" fill="#4E8985"/>
<path d="M31.0039 86.0973L51.6039 80.6973H58.7039L77.3039 85.7973C67.8039 94.6973 44.1039 101.997 32.0039 86.4973L31.0039 86.0973Z" fill="#E8B499"/>
<path fill-rule="evenodd" clip-rule="evenodd" d="M85.3023 67.6C85.1023 65.9 85.2023 64.2 85.6023 62.6C87.7023 54.5 85.3023 47.6 81.0023 42.4C77.1023 37.7 76.2023 30.8 76.2023 30.8C73.4023 21.5 63.8023 15 55.0023 15C46.2023 15 36.6023 21.1 33.8023 30.5C33.8023 30.5 32.5023 37.9 28.9023 42.5C24.8023 47.8 22.2023 54.6 24.3023 62.7C24.7023 64.3 24.8023 66 24.6023 67.7C24.5023 68.9 24.1023 70.2 23.4023 71.1H48.104L48.4549 64.6256L48.4018 64.596C44.39 62.3991 41.5643 59.5635 40.4476 55.5663C39.7284 55.8852 38.9359 56.0725 38.1012 56.0971C34.7012 56.1971 31.9012 53.4971 31.8012 50.0971C31.7012 46.6971 34.4012 43.8971 37.8012 43.7971C38.1101 43.788 38.414 43.802 38.7115 43.8376C38.4514 40.7307 38.4018 38.596 38.4018 38.596C38.4018 38.596 38.2392 36.5058 38.7411 33.7579C42.5218 32.6558 50.3563 29.6893 54.3027 23.2482C59.135 31.1351 69.7967 33.8125 71.7077 34.2365C72.1229 36.6396 72.0018 38.396 72.0018 38.396C72.0018 40.272 71.9312 42.0696 71.8077 43.7756C72.1305 43.7237 72.4618 43.6967 72.7993 43.6967C76.2235 43.6967 78.9993 46.4725 78.9993 49.8967C78.9993 53.3209 76.2235 56.0967 72.7993 56.0967C71.7768 56.0967 70.8121 55.8492 69.9618 55.4108C68.865 59.1384 66.2366 61.796 62.6018 63.996L61.9018 64.396C61.7571 64.4807 61.6109 64.5625 61.4633 64.6415L61.8874 71.1H86.3023C85.8023 70.1 85.5023 68.8 85.3023 67.6Z" fill="#DA4412"/>
</g>
</svg>
