<svg width="110" height="110" viewBox="0 0 110 110" fill="none" xmlns="http://www.w3.org/2000/svg">
<path d="M43.2969 15.0328C43.2969 15.0328 51.1969 4.33284 65.2969 11.4328C80.6969 19.3328 72.3969 36.2328 72.3969 36.2328L39.2969 30.0328L43.2969 15.0328Z" fill="#A74B22"/>
<path d="M36.6977 36.4328C36.6977 36.4328 27.9977 19.4328 43.2977 15.1328L46.0977 24.2328L36.6977 36.4328Z" fill="#A74B22"/>
<path d="M43.998 44.2332C44.098 47.6332 41.398 50.4332 37.998 50.5332C34.598 50.6332 31.798 47.9332 31.698 44.5332C31.598 41.1332 34.298 38.3332 37.698 38.2332C41.098 38.1332 43.898 40.8332 43.998 44.2332Z" fill="#E8B499"/>
<path d="M34.3984 43.5329C34.3984 43.5329 36.7984 42.3329 39.1984 46.6329" stroke="#C47268" stroke-width="0.6887" stroke-miterlimit="10" stroke-linecap="round" stroke-linejoin="round"/>
<path d="M66.4961 44.4324C66.4961 47.8324 69.2961 50.6324 72.6961 50.6324C76.0961 50.6324 78.8961 47.8324 78.8961 44.4324C78.8961 41.0324 76.0961 38.2324 72.6961 38.2324C69.2961 38.2324 66.4961 41.0324 66.4961 44.4324Z" fill="#E8B499"/>
<path d="M76.1961 43.4327C76.1961 43.4327 73.6961 42.3327 71.4961 46.6327" stroke="#C47268" stroke-width="0.6887" stroke-miterlimit="10" stroke-linecap="round" stroke-linejoin="round"/>
<path d="M63.1977 58.632C63.1977 58.632 59.6977 61.132 56.5977 61.732C53.3977 62.332 50.3977 60.532 50.2977 60.432L46.5977 58.332L45.0977 78.632L45.4977 78.932C50.8977 83.332 58.5977 83.432 63.9977 79.032L64.7977 78.432L63.1977 58.632Z" fill="#E8B499"/>
<path d="M45.0977 56.1328C45.0977 56.1328 48.5977 67.4328 56.4977 67.3328C62.9977 67.2328 64.0977 56.1328 64.0977 56.1328H45.0977V56.1328Z" fill="#1E0B02"/>
<path d="M71.8998 33.7321C71.8998 40.7321 70.9999 46.7321 69.9999 50.9321C68.9999 55.1321 65.3999 58.0321 61.4999 60.4321L60.7998 60.8321C56.6998 63.3321 53.2999 63.4321 49.1999 61.0321C44.9999 58.6321 41.0999 55.4321 40.1999 51.0321C38.4999 42.9321 38.2998 33.8321 38.2998 33.8321C38.2998 33.8321 35.8998 15.0321 54.0998 15.2321C72.1998 15.5321 71.8998 33.7321 71.8998 33.7321Z" fill="#E8B499"/>
<path d="M48.6953 39.2344C48.6953 40.0344 47.9953 40.7344 47.1953 40.7344C46.3953 40.7344 45.6953 40.0344 45.6953 39.2344C45.6953 38.4344 46.3953 37.7344 47.1953 37.7344C48.0953 37.7344 48.6953 38.4344 48.6953 39.2344Z" fill="#1E0B02"/>
<path d="M63.0977 39.2344C63.0977 40.0344 62.3977 40.7344 61.5977 40.7344C60.7977 40.7344 60.0977 40.0344 60.0977 39.2344C60.0977 38.4344 60.7977 37.7344 61.5977 37.7344C62.4977 37.7344 63.0977 38.4344 63.0977 39.2344Z" fill="#1E0B02"/>
<path d="M53.0977 43.0332V45.4332H54.9977" stroke="#C47268" stroke-width="0.6887" stroke-miterlimit="10" stroke-linecap="round" stroke-linejoin="round"/>
<path d="M41.7969 33.0336L51.3969 32.1336C51.3969 32.1336 50.4969 29.6336 46.6969 30.0336C42.6969 30.5336 41.7969 33.0336 41.7969 33.0336Z" fill="black"/>
<path d="M66.4984 33.0336L56.8984 32.1336C56.8984 32.1336 57.7984 29.6336 61.5984 30.0336C65.5984 30.5336 66.4984 33.0336 66.4984 33.0336Z" fill="black"/>
<path d="M49.8984 48.7344H59.3984C59.3984 48.7344 58.9984 51.6344 54.4984 51.6344C49.9984 51.6344 49.8984 48.7344 49.8984 48.7344Z" fill="white"/>
<path d="M38.8972 42.8338C38.8972 42.8338 39.5972 19.7338 39.2972 19.1338C39.2972 19.0338 31.0972 26.6338 38.8972 42.8338Z" fill="#A74B22"/>
<path d="M71.1961 42.6332L69.9961 17.5332C69.9961 17.5332 77.8961 25.3332 71.1961 42.6332Z" fill="#A74B22"/>
<path d="M46.4966 17.0332C46.4966 17.0332 40.8966 18.5332 41.0966 24.1332C41.2966 29.6332 37.5966 35.1332 37.5966 35.1332L35.8966 29.6332C35.7966 29.5332 34.4966 19.2332 46.4966 17.0332Z" fill="#A74B22"/>
<path d="M45.0974 17.4336C45.0974 17.4336 49.2974 15.0336 53.4974 20.3336C57.0974 24.8336 66.4974 29.4336 72.0974 25.0336C72.0974 25.0336 68.4974 12.3336 54.6974 12.5336C40.8974 12.7336 45.0974 17.4336 45.0974 17.4336Z" fill="#A74B22"/>
<circle cx="55" cy="55" r="55" fill="#EAF7FF"/>
<mask id="mask0" mask-type="alpha" maskUnits="userSpaceOnUse" x="0" y="0" width="110" height="110">
<circle cx="55" cy="55" r="55" fill="#FAFF00"/>
</mask>
<g mask="url(#mask0)">
<path d="M43.2969 19.0328C43.2969 19.0328 51.1969 8.33284 65.2969 15.4328C80.6969 23.3328 72.3969 40.2328 72.3969 40.2328L39.2969 34.0328L43.2969 19.0328Z" fill="#A74B22"/>
<path d="M36.6977 40.4328C36.6977 40.4328 27.9977 23.4328 43.2977 19.1328L46.0977 28.2328L36.6977 40.4328Z" fill="#A74B22"/>
<path d="M43.998 48.2332C44.098 51.6332 41.398 54.4332 37.998 54.5332C34.598 54.6332 31.798 51.9332 31.698 48.5332C31.598 45.1332 34.298 42.3332 37.698 42.2332C41.098 42.1332 43.898 44.8332 43.998 48.2332Z" fill="#E8B499"/>
<path d="M34.3984 47.5329C34.3984 47.5329 36.7984 46.3329 39.1984 50.6329" stroke="#C47268" stroke-width="0.6887" stroke-miterlimit="10" stroke-linecap="round" stroke-linejoin="round"/>
<path d="M66.4961 48.4324C66.4961 51.8324 69.2961 54.6324 72.6961 54.6324C76.0961 54.6324 78.8961 51.8324 78.8961 48.4324C78.8961 45.0324 76.0961 42.2324 72.6961 42.2324C69.2961 42.2324 66.4961 45.0324 66.4961 48.4324Z" fill="#E8B499"/>
<path d="M76.1961 47.4327C76.1961 47.4327 73.6961 46.3327 71.4961 50.6327" stroke="#C47268" stroke-width="0.6887" stroke-miterlimit="10" stroke-linecap="round" stroke-linejoin="round"/>
<path d="M63.1977 62.632C63.1977 62.632 59.6977 65.132 56.5977 65.732C53.3977 66.332 50.3977 64.532 50.2977 64.432L46.5977 62.332L45.0977 82.632L45.4977 82.932C50.8977 87.332 58.5977 87.432 63.9977 83.032L64.7977 82.432L63.1977 62.632Z" fill="#E8B499"/>
<path d="M45.0977 60.1328C45.0977 60.1328 48.5977 71.4328 56.4977 71.3328C62.9977 71.2328 64.0977 60.1328 64.0977 60.1328H45.0977V60.1328Z" fill="#1E0B02"/>
<path d="M71.8998 37.7321C71.8998 44.7321 70.9999 50.7321 69.9999 54.9321C68.9999 59.1321 65.3999 62.0321 61.4999 64.4321L60.7998 64.8321C56.6998 67.3321 53.2999 67.4321 49.1999 65.0321C44.9999 62.6321 41.0999 59.4321 40.1999 55.0321C38.4999 46.9321 38.2998 37.8321 38.2998 37.8321C38.2998 37.8321 35.8998 19.0321 54.0998 19.2321C72.1998 19.5321 71.8998 37.7321 71.8998 37.7321Z" fill="#E8B499"/>
<path d="M48.6953 43.2344C48.6953 44.0344 47.9953 44.7344 47.1953 44.7344C46.3953 44.7344 45.6953 44.0344 45.6953 43.2344C45.6953 42.4344 46.3953 41.7344 47.1953 41.7344C48.0953 41.7344 48.6953 42.4344 48.6953 43.2344Z" fill="#1E0B02"/>
<path d="M63.0977 43.2344C63.0977 44.0344 62.3977 44.7344 61.5977 44.7344C60.7977 44.7344 60.0977 44.0344 60.0977 43.2344C60.0977 42.4344 60.7977 41.7344 61.5977 41.7344C62.4977 41.7344 63.0977 42.4344 63.0977 43.2344Z" fill="#1E0B02"/>
<path d="M53.0977 47.0332V49.4332H54.9977" stroke="#C47268" stroke-width="0.6887" stroke-miterlimit="10" stroke-linecap="round" stroke-linejoin="round"/>
<path d="M41.7969 37.0336L51.3969 36.1336C51.3969 36.1336 50.4969 33.6336 46.6969 34.0336C42.6969 34.5336 41.7969 37.0336 41.7969 37.0336Z" fill="black"/>
<path d="M66.4984 37.0336L56.8984 36.1336C56.8984 36.1336 57.7984 33.6336 61.5984 34.0336C65.5984 34.5336 66.4984 37.0336 66.4984 37.0336Z" fill="black"/>
<path d="M49.8984 52.7344H59.3984C59.3984 52.7344 58.9984 55.6344 54.4984 55.6344C49.9984 55.6344 49.8984 52.7344 49.8984 52.7344Z" fill="white"/>
<path d="M38.8972 46.8338C38.8972 46.8338 39.5972 23.7338 39.2972 23.1338C39.2972 23.0338 31.0972 30.6338 38.8972 46.8338Z" fill="#A74B22"/>
<path d="M71.1961 46.6332L69.9961 21.5332C69.9961 21.5332 77.8961 29.3332 71.1961 46.6332Z" fill="#A74B22"/>
<path d="M46.4966 21.0332C46.4966 21.0332 40.8966 22.5332 41.0966 28.1332C41.2966 33.6332 37.5966 39.1332 37.5966 39.1332L35.8966 33.6332C35.7966 33.5332 34.4966 23.2332 46.4966 21.0332Z" fill="#A74B22"/>
<path d="M45.0974 21.4336C45.0974 21.4336 49.2974 19.0336 53.4974 24.3336C57.0974 28.8336 66.4974 33.4336 72.0974 29.0336C72.0974 29.0336 68.4974 16.3336 54.6974 16.5336C40.8974 16.7336 45.0974 21.4336 45.0974 21.4336Z" fill="#A74B22"/>
<path d="M82.0984 89.4336C82.0984 89.4336 91.8984 91.9336 97.1984 106.734C107.698 136.334 118.598 215.634 118.598 215.634L99.7984 219.134L73.3984 117.534L82.0984 89.4336Z" fill="#EEC86A"/>
<path d="M27.5 89.4355C27.5 89.4355 17.7 91.9355 12.4 106.736C1.90001 136.336 -9 215.636 -9 215.636L9.8 219.136L36.2 117.536L27.5 89.4355Z" fill="#EEC86A"/>
<path d="M75.9 86.7344L84.3 90.4344C87.7 91.9344 89.9 95.3344 89.9 99.0344L90.2 190.534H19.5V99.0344C19.5 95.2344 21.8 91.7344 25.3 90.3344L33.9 86.7344H75.9Z" fill="#EEC86A"/>
<path d="M55.5 77.834L75.9 86.734C75.9 86.734 54.9 105.734 34 86.734L55.5 77.834Z" fill="#E8B499"/>
<path d="M34 86.6348C34 86.6348 41.3 95.2348 54.9 95.2348C68.5 95.2348 75.9 86.6348 75.9 86.6348" stroke="white" stroke-width="1.9384" stroke-miterlimit="10"/>
</g>
</svg>
