<svg width="210" height="289" viewBox="0 0 210 289" fill="none" xmlns="http://www.w3.org/2000/svg">
<path d="M0 144.1C0 99.2 0 54.4 0 9.6C0 2 1.8 0 9.3 0C73.2 0 137 0 200.8 0C208.1 0 210 1.9 210 9.2C210 99.4 210 189.5 210 279.7C210 287.1 208 289 200.4 289C176.1 289 151.7 289 127.4 289C119.9 289 118 287 118 279.5C118 222 118 164.5 118 107C118 98.1 113 92.4 105.2 92.3C98.3 92.2 92.8 97.2 92.1 104.1C92 105.6 92 107.1 92 108.6C92 165.4 92 222.3 92 279.1C92 287 90.1 289 82.4 289C58.2 289 34.1 289 9.9 289C1.7 289 0 287.2 0 279C0 234 0 189 0 144.1ZM150.9 39.7C120.8 39.7 91.2 39.7 61.5 39.9C60.3 39.9 58.5 42.4 58 44C52.6 65.3 39.3 78.9 18 84.2C14.1 85.2 12.9 86.3 12.9 90.2C13 141.5 13 192.8 13 244.2C13 245.8 13.2 247.4 13.3 249.1C35.3 249.1 56.7 249.1 78.7 249.1C78.7 246.9 78.7 244.9 78.7 243C78.7 197.5 78.7 152 78.7 106.5C78.7 103.9 78.7 101.1 79.4 98.6C82.5 86.1 94.9 77.4 107.1 78.9C121.4 80.6 131.1 91 131.1 104.9C131.1 151.1 131.1 197.2 131.1 243.4C131.1 245.3 131.1 247.2 131.1 249.1C153.4 249.1 174.8 249.1 196.4 249.1C196.4 194.4 196.4 140 196.4 85.5C171.2 80.3 156.1 65.2 150.9 39.7ZM13.5 26C74.6 26 135.5 26 196.6 26C196.6 21.8 196.6 17.9 196.6 13.8C135.5 13.8 74.6 13.8 13.5 13.8C13.5 18 13.5 21.9 13.5 26ZM13.4 275.2C35.2 275.2 56.7 275.2 78.5 275.2C78.5 271 78.5 267.1 78.5 262.9C56.7 262.9 35.2 262.9 13.4 262.9C13.4 267.2 13.4 271.1 13.4 275.2ZM196.6 263C174.7 263 153.1 263 131.5 263C131.5 267.3 131.5 271.2 131.5 275.2C153.3 275.2 174.9 275.2 196.6 275.2C196.6 271.1 196.6 267.3 196.6 263ZM13.4 71.3C29.7 68.8 45 53 44.4 40C34.2 40 23.9 40 13.4 40C13.4 50.5 13.4 60.8 13.4 71.3ZM196.5 71.2C196.5 60.7 196.5 50.4 196.5 40C185.9 40 175.5 40 165.2 40C167.1 55.5 181 69.2 196.5 71.2Z" fill="black"/>
</svg>
