<svg width="109" height="98" viewBox="0 0 109 98" fill="none" xmlns="http://www.w3.org/2000/svg">
<path d="M108.999 36.3718C107.783 37.7346 106.566 39.1461 105.252 40.4603C96.0525 49.708 86.8047 58.9072 77.6056 68.1549C76.1454 69.6151 74.6366 70.7833 72.495 69.9072C70.3534 69.0311 70.0127 67.1815 70.0127 65.0886C70.0614 60.416 70.0127 55.7434 70.0127 50.8275C64.318 50.8275 58.7693 50.5355 53.318 50.8762C46.9419 51.2656 40.5171 51.7036 34.3357 53.0178C22.4596 55.5488 15.1587 63.5311 13.7472 75.5532C13.0171 81.6859 13.5525 87.9647 13.4065 94.1948C13.3578 95.2169 12.6764 96.239 12.287 97.2611C11.3136 96.6284 9.80473 96.2877 9.36668 95.3629C5.18083 86.4072 0.897648 77.3541 0.216232 67.3762C-0.659874 53.9912 1.14101 41.239 12.0923 31.6992C19.1499 25.5178 27.7649 22.8408 36.7693 21.1859C46.2605 19.4337 55.8003 19.6771 65.3888 19.6771C66.849 19.6771 68.2605 19.6771 70.0614 19.6771C70.0614 14.8585 70.11 10.1859 70.0614 5.51336C70.0127 3.32309 70.3047 1.37619 72.5437 0.451409C74.7826 -0.424697 76.3401 0.889462 77.849 2.39831C87.5348 12.1328 97.2207 21.77 106.858 31.5045C107.685 32.3319 108.318 33.4027 108.999 34.3762C108.999 35.0576 108.999 35.739 108.999 36.3718Z" fill="black"/>
</svg>
