<svg width="746" height="644" viewBox="0 0 746 644" fill="none" xmlns="http://www.w3.org/2000/svg">
<path d="M163.401 248.501C156.601 255.701 150.501 262.201 144.301 268.601C140.201 272.801 136.301 277.201 131.801 280.901C126.101 285.501 118.501 284.201 112.401 278.201C99.401 265.201 86.401 252.201 73.401 239.201C51.201 217.101 29.101 194.901 7.001 172.801C-1.699 164.101 -1.799 156.901 6.901 148.201C52.601 102.601 98.501 57.3009 143.701 11.3009C150.601 4.30093 157.201 2.00093 166.401 2.00093C199.301 2.10093 232.301 1.70093 265.201 1.40093C272.201 1.30093 278.001 3.60093 280.601 10.3009C289.401 34.0009 306.801 49.4009 329.901 57.0009C367.001 69.3009 403.201 66.9009 436.601 44.5009C448.901 36.2009 457.301 25.0009 462.401 11.0009C465.201 3.20093 469.401 0.300929 477.501 0.400929C513.101 0.600929 548.701 0.900929 584.401 1.10093C589.401 1.10093 593.401 3.10093 596.801 6.60093C605.701 15.5009 614.601 24.3009 623.501 33.1009C661.301 70.2009 699.101 107.301 736.901 144.401C748.001 155.301 748.001 161.301 737.101 172.101C719.701 189.501 702.301 206.801 685.001 224.301C668.401 241.001 652.001 258.001 635.501 274.701C626.501 283.801 619.301 283.701 610.201 274.601C601.101 265.501 592.001 256.401 582.301 246.601C582.101 248.801 581.901 250.101 581.901 251.501C581.901 301.301 581.801 351.201 581.901 401.001C582.101 475.201 582.601 549.401 582.901 623.601C583.001 637.501 578.201 642.301 564.301 642.301C492.701 642.301 421.101 642.201 349.601 642.301C294.501 642.401 239.301 642.901 184.201 643.201C170.601 643.301 166.001 638.401 165.901 624.701C165.601 577.801 165.101 530.801 164.901 483.901C164.701 420.901 164.901 357.801 164.801 294.801C164.801 280.301 164.201 265.801 163.801 251.301C163.801 250.901 163.701 250.301 163.401 248.501ZM711.501 158.001C709.601 156.401 708.001 155.201 706.601 153.801C670.101 118.001 633.601 82.2009 597.101 46.4009C592.101 41.5009 587.201 36.4009 582.001 31.7009C580.701 30.5009 578.601 29.5009 576.801 29.4009C547.501 29.0009 518.301 28.8009 489.001 28.4009C486.001 28.4009 484.601 29.5009 483.301 32.0009C480.701 37.0009 478.001 42.1009 474.701 46.5009C466.201 57.7009 455.601 66.6009 443.401 73.5009C403.701 96.2009 361.801 97.1009 319.601 83.1009C294.001 74.6009 273.901 57.6009 260.601 33.6009C258.801 30.3009 256.901 29.3009 253.301 29.3009C225.401 29.7009 197.401 30.0009 169.501 30.1009C166.001 30.1009 163.601 31.2009 161.201 33.6009C119.801 74.7009 78.301 115.801 36.801 156.801C35.701 157.901 34.601 159.101 33.501 160.301C34.101 159.901 34.601 159.501 35.201 159.101C64.401 189.101 93.601 219.201 123.701 250.001C125.101 248.101 126.101 246.401 127.301 245.101C140.601 231.701 154.001 218.301 167.401 205.001C172.001 200.401 177.501 199.101 183.501 201.601C189.401 204.101 191.701 209.001 191.801 215.301C192.101 251.401 192.701 287.401 192.701 323.501C192.801 405.401 192.701 487.401 192.801 569.301C192.801 584.001 193.401 598.601 193.801 613.301C193.801 613.901 194.201 614.501 194.101 614.401C314.501 614.401 434.401 614.401 554.901 614.401C554.901 612.001 554.901 610.401 554.901 608.701C554.601 530.801 554.101 452.901 553.901 375.101C553.701 321.701 553.901 268.401 553.801 215.001C553.801 208.001 555.601 202.301 562.401 199.501C569.201 196.701 574.601 199.201 579.501 204.201C592.501 217.401 605.701 230.501 618.901 243.601C620.201 244.901 621.501 246.001 623.101 247.601C652.501 218.001 681.701 188.301 711.501 158.001Z" fill="black"/>
</svg>
