<svg width="149" height="157" viewBox="0 0 149 157" fill="none" xmlns="http://www.w3.org/2000/svg">
<path d="M117.988 0C119.87 0.394476 121.751 0.667574 123.602 1.15308C136.407 4.46061 145.086 15.2025 145.693 28.4326C146.3 41.7537 146.937 55.0445 147.483 68.3657C147.938 79.2289 148.576 90.0922 148.606 100.955C148.667 112.061 147.089 122.955 142.901 133.363C140.474 139.402 137.166 144.894 132.129 149.142C120.295 159.095 103.332 157.123 93.4703 144.651C88.0083 137.763 85.0649 129.722 83.3353 121.195C81.636 112.82 80.9988 104.324 81.2719 95.7969C81.8484 78.5917 82.5463 61.3865 83.2443 44.1509C83.4263 39.5993 83.7601 35.0477 83.8815 30.496C84.0636 24.2451 86.0663 18.6314 89.4345 13.4122C94.502 5.52266 101.876 1.45653 111.04 0.242754C111.343 0.21241 111.616 0.0910329 111.92 0C113.922 0 115.955 0 117.988 0ZM143.599 88.8784C142.992 78.3186 142.446 69.9436 142.021 61.5686C141.475 50.4929 141.08 39.3869 140.443 28.3112C140.079 22.4244 137.803 17.2356 133.768 12.866C123.541 1.851 100.541 1.72962 92.1351 18.9652C90.3145 22.6975 89.1614 26.5513 89.04 30.7388C88.8883 35.3511 88.5849 39.9331 88.4028 44.5454C87.7352 62.0237 86.8856 79.4717 86.4608 96.95C86.1877 108.086 87.2497 119.101 91.1641 129.661C92.9241 134.456 95.1392 138.977 98.6288 142.77C104.364 149.051 111.464 151.357 119.779 149.628C126.485 148.232 131.097 143.984 134.556 138.34C139.867 129.661 142.051 120.012 142.84 110.028C143.447 102.321 143.417 94.5225 143.599 88.8784Z" fill="black"/>
<path d="M104.545 103.869C102.481 103.535 99.5986 104.597 99.4469 101.107C99.3559 99.3474 100.388 98.8619 104.484 98.4674C104.484 95.0992 104.484 91.7613 104.484 88.3021C102.451 87.9683 99.3862 88.9697 99.4772 85.5104C99.5683 82.3243 102.421 83.2042 104.484 82.9311C104.484 79.5326 104.484 76.1644 104.484 72.7051C102.451 72.4624 99.5076 73.3727 99.4772 70.0652C99.4469 66.7273 102.39 67.6376 104.575 67.3645C104.575 65.7866 104.605 64.2087 104.545 62.6612C104.545 62.3577 104.302 62.0239 104.09 61.7508C103.938 61.5688 103.695 61.417 103.483 61.2957C96.5035 57.624 94.1063 51.4945 94.1973 43.9994C94.258 39.5995 94.1973 35.1692 94.1973 30.7693C94.1973 27.2494 95.3201 24.0632 96.8069 20.8771C100.691 12.6841 111.22 8.67866 119.778 10.9241C128.851 13.3213 135.253 21.3626 135.344 30.83C135.405 36.0492 135.496 41.2684 135.253 46.4876C134.95 52.6475 132.795 57.9274 126.908 60.9619C126.787 61.0226 126.666 61.1439 126.514 61.2046C125.604 61.6598 125.179 62.3274 125.27 63.3894C125.361 64.5425 125.3 65.7259 125.3 66.879C125.3 66.97 125.361 67.0611 125.452 67.3949C126.12 67.3949 126.848 67.3949 127.576 67.3949C129.397 67.4252 130.459 68.4266 130.459 70.0045C130.428 71.5824 129.366 72.523 127.515 72.5534C126.817 72.5534 126.12 72.5534 125.361 72.5534C125.361 76.043 125.361 79.3505 125.361 82.9008C126.059 82.9008 126.757 82.9008 127.455 82.9008C129.366 82.9311 130.489 83.9325 130.489 85.5407C130.459 87.1187 129.397 88.0593 127.546 88.0897C126.878 88.0897 126.241 88.0897 125.452 88.0897C125.452 91.4275 125.452 94.6744 125.452 98.164C126.241 98.164 127.03 98.1336 127.819 98.164C129.518 98.255 130.519 99.317 130.489 100.834C130.459 102.321 129.457 103.231 127.788 103.323C127.03 103.353 126.271 103.323 125.391 103.323C125.3 105.447 126.12 107.085 127.697 108.087C129.548 109.27 131.642 110.089 133.584 111.182C134.373 111.637 135.253 112.304 135.526 113.063C135.769 113.761 135.435 115.035 134.889 115.491C134.221 116.037 132.977 116.31 132.158 116.097C128.79 115.126 125.695 113.488 123.055 110.969C121.143 114.064 118.807 116.28 115.044 116.371C111.251 116.462 108.914 114.155 106.821 111.273C104.302 113.731 101.389 115.187 98.2635 116.31C96.3518 116.977 94.8649 116.462 94.3187 114.975C93.7725 113.427 94.5918 112.213 96.4732 111.424C98.3545 110.605 100.266 109.725 101.996 108.602C103.665 107.662 104.605 106.053 104.545 103.869ZM101.389 52.7993C107.701 44.7277 122.296 44.6973 128.851 53.133C129.336 50.5841 130.034 48.3993 130.095 46.2145C130.277 40.965 130.277 35.6851 130.155 30.4052C129.943 22.2122 122.964 15.4758 114.649 15.6275C106.001 15.7792 99.9931 21.5143 99.5076 30.2534C99.2041 35.4423 99.3862 40.6919 99.4772 45.9111C99.5076 48.278 99.9931 50.6145 101.389 52.7993ZM105.364 56.5619C110.705 58.6254 109.764 63.2377 109.764 67.4252C113.314 67.4252 116.682 67.4252 120.172 67.4252C120.02 63.086 119.353 58.595 124.511 56.5619C120.87 50.4324 109.218 50.4021 105.364 56.5619ZM109.855 82.9311C113.345 82.9311 116.682 82.9311 120.02 82.9311C120.02 79.4719 120.02 76.1037 120.02 72.7658C116.561 72.7658 113.254 72.7658 109.855 72.7658C109.855 76.1644 109.855 79.4719 109.855 82.9311ZM120.051 88.3324C116.591 88.3324 113.223 88.3324 109.885 88.3324C109.885 91.7917 109.885 95.1599 109.885 98.4978C113.314 98.4978 116.652 98.4978 120.051 98.4978C120.051 95.0992 120.051 91.7917 120.051 88.3324ZM120.354 103.899C120.202 103.747 120.051 103.596 119.929 103.474C116.591 103.626 113.254 103.778 109.4 103.96C110.432 106.114 111.099 108.026 112.191 109.664C113.709 111.971 116.318 111.971 117.775 109.604C118.867 107.844 119.504 105.811 120.354 103.899Z" fill="black"/>
<path d="M36.7775 1C38.6589 1.39448 40.5402 1.66757 42.3912 2.15308C55.1965 5.46061 63.875 16.2025 64.4819 29.4326C65.0888 42.7537 65.726 56.0445 66.2722 69.3657C66.7274 80.2289 67.3646 91.0922 67.3949 101.955C67.4556 113.061 65.8777 123.955 61.6902 134.363C59.2627 140.402 55.9551 145.894 50.918 150.142C39.0837 160.095 22.1212 158.123 12.2594 145.651C6.79738 138.763 3.85399 130.722 2.12436 122.195C0.425081 113.82 -0.212154 105.324 0.0609442 96.7969C0.637486 79.5917 1.3354 62.3865 2.03332 45.1509C2.21539 40.5993 2.54918 36.0477 2.67056 31.496C2.85262 25.2451 4.85534 19.6314 8.22356 14.4122C13.2911 6.52266 20.6647 2.45653 29.8287 1.24275C30.1321 1.21241 30.4052 1.09103 30.7087 1C32.7114 1 34.7445 1 36.7775 1ZM62.3881 89.8784C61.7812 79.3186 61.235 70.9436 60.8102 62.5686C60.264 51.4929 59.8695 40.3869 59.2323 29.3112C58.8682 23.4244 56.5924 18.2356 52.5566 13.866C42.3305 2.851 19.3296 2.72962 10.9242 19.9652C9.10355 23.6975 7.95046 27.5513 7.82908 31.7388C7.67736 36.3511 7.37392 40.9331 7.19185 45.5454C6.52428 63.0237 5.67464 80.4717 5.24982 97.95C4.97672 109.086 6.03877 120.101 9.95319 130.661C11.7132 135.456 13.9283 139.977 17.4179 143.77C23.153 150.051 30.2535 152.357 38.5678 150.628C45.2739 149.232 49.8863 144.984 53.3455 139.34C58.6558 130.661 60.8406 121.012 61.6295 111.028C62.2364 103.321 62.2061 95.5225 62.3881 89.8784Z" fill="black"/>
<path d="M23.3338 104.869C21.2704 104.535 18.3877 105.597 18.236 102.107C18.1449 100.347 19.1766 99.8619 23.2731 99.4674C23.2731 96.0992 23.2731 92.7613 23.2731 89.3021C21.24 88.9683 18.1753 89.9697 18.2663 86.5104C18.3573 83.3243 21.2097 84.2042 23.2731 83.9311C23.2731 80.5326 23.2731 77.1644 23.2731 73.7051C21.24 73.4624 18.2966 74.3727 18.2663 71.0652C18.236 67.7273 21.1794 68.6376 23.3641 68.3645C23.3641 66.7866 23.3945 65.2087 23.3338 63.6612C23.3338 63.3577 23.091 63.0239 22.8786 62.7508C22.7269 62.5688 22.4842 62.417 22.2718 62.2957C15.2926 58.624 12.8954 52.4945 12.9864 44.9994C13.0471 40.5995 12.9864 36.1692 12.9864 31.7693C12.9864 28.2494 14.1091 25.0632 15.596 21.8771C19.4801 13.6841 30.0095 9.67866 38.5666 11.9241C47.6396 14.3213 54.0422 22.3626 54.1332 31.83C54.1939 37.0492 54.285 42.2684 54.0422 47.4876C53.7388 53.6475 51.5843 58.9274 45.6975 61.9619C45.5762 62.0226 45.4548 62.1439 45.3031 62.2046C44.3927 62.6598 43.9679 63.3274 44.0589 64.3894C44.15 65.5425 44.0893 66.7259 44.0893 67.879C44.0893 67.97 44.15 68.0611 44.241 68.3949C44.9086 68.3949 45.6368 68.3949 46.3651 68.3949C48.1858 68.4252 49.2478 69.4266 49.2478 71.0045C49.2175 72.5824 48.1554 73.523 46.3044 73.5534C45.6065 73.5534 44.9086 73.5534 44.15 73.5534C44.15 77.043 44.15 80.3505 44.15 83.9008C44.8479 83.9008 45.5458 83.9008 46.2437 83.9008C48.1554 83.9311 49.2782 84.9325 49.2782 86.5407C49.2478 88.1187 48.1858 89.0593 46.3348 89.0897C45.6672 89.0897 45.03 89.0897 44.241 89.0897C44.241 92.4275 44.241 95.6744 44.241 99.164C45.03 99.164 45.8189 99.1336 46.6079 99.164C48.3071 99.255 49.3085 100.317 49.2782 101.834C49.2478 103.321 48.2465 104.231 46.5775 104.323C45.8189 104.353 45.0603 104.323 44.1803 104.323C44.0893 106.447 44.9086 108.085 46.4865 109.087C48.3375 110.27 50.4312 111.089 52.3733 112.182C53.1622 112.637 54.0422 113.304 54.3153 114.063C54.5581 114.761 54.2243 116.035 53.6781 116.491C53.0105 117.037 51.7664 117.31 50.9471 117.097C47.5789 116.126 44.4838 114.488 41.8438 111.969C39.9321 115.064 37.5956 117.28 33.8329 117.371C30.0399 117.462 27.7034 115.155 25.6096 112.273C23.091 114.731 20.178 116.187 17.0525 117.31C15.1408 117.977 13.654 117.462 13.1078 115.975C12.5616 114.427 13.3809 113.213 15.2622 112.424C17.1436 111.605 19.0553 110.725 20.7849 109.602C22.4538 108.662 23.3945 107.053 23.3338 104.869ZM20.178 53.7993C26.4896 45.7277 41.0852 45.6973 47.6396 54.133C48.1251 51.5841 48.823 49.3993 48.8837 47.2145C49.0657 41.965 49.0658 36.6851 48.9444 31.4052C48.732 23.2122 41.7528 16.4758 33.4384 16.6275C24.7903 16.7792 18.7822 22.5143 18.2967 31.2534C17.9932 36.4423 18.1753 41.6919 18.2663 46.9111C18.2966 49.278 18.7822 51.6145 20.178 53.7993ZM24.1531 57.5619C29.4937 59.6254 28.553 64.2377 28.553 68.4252C32.1033 68.4252 35.4715 68.4252 38.9611 68.4252C38.8094 64.086 38.1418 59.595 43.3003 57.5619C39.659 51.4324 28.0068 51.4021 24.1531 57.5619ZM28.6441 83.9311C32.1336 83.9311 35.4715 83.9311 38.8094 83.9311C38.8094 80.4719 38.8094 77.1037 38.8094 73.7658C35.3501 73.7658 32.0426 73.7658 28.6441 73.7658C28.6441 77.1644 28.6441 80.4719 28.6441 83.9311ZM38.8397 89.3324C35.3805 89.3324 32.0123 89.3324 28.6744 89.3324C28.6744 92.7917 28.6744 96.1599 28.6744 99.4978C32.1033 99.4978 35.4412 99.4978 38.8397 99.4978C38.8397 96.0992 38.8397 92.7917 38.8397 89.3324ZM39.1432 104.899C38.9915 104.747 38.8397 104.596 38.7183 104.474C35.3805 104.626 32.0426 104.778 28.1889 104.96C29.2206 107.114 29.8882 109.026 30.9806 110.664C32.4978 112.971 35.1074 112.971 36.5639 110.604C37.6563 108.844 38.2935 106.811 39.1432 104.899Z" fill="black"/>
</svg>
