<svg width="430" height="502" viewBox="0 0 430 502" fill="none" xmlns="http://www.w3.org/2000/svg">
<path d="M430 289.145C429.076 292.974 428.284 296.803 427.095 300.5C421.286 318.191 409.139 329.942 391.711 336.148C386.958 337.864 384.714 340.372 382.997 344.729C368.87 379.717 352.235 413.253 327.941 442.563C306.156 468.837 280.146 489.434 246.215 497.488C199.344 508.842 158.415 495.903 122.767 464.612C96.4931 441.639 78.141 412.725 62.8255 381.83C56.7522 369.683 51.3389 357.14 46.0578 344.597C44.4734 340.769 42.3609 338.788 38.4 337.468C2.75202 324.793 -10.847 284.392 9.48553 252.837C11.0699 250.46 11.466 247.16 11.598 244.255C12.5222 221.678 11.334 198.705 14.3706 176.524C22.9526 114.734 49.7546 63.2422 104.283 29.0465C130.953 12.2788 160.66 3.96089 191.951 1.3203C194.327 1.05624 196.572 0.528119 198.948 0C209.51 0 220.073 0 230.635 0C240.802 1.3203 251.1 2.37653 261.266 4.09292C294.538 9.63817 325.168 21.6529 351.31 43.4378C391.051 76.8413 409.799 121.203 415.213 171.507C417.853 195.404 417.061 219.697 417.853 243.859C417.985 246.235 417.853 248.744 418.645 250.988C422.21 260.23 426.171 269.473 430 278.583C430 282.147 430 285.58 430 289.145ZM394.88 216.133C393.956 192.367 392.504 168.602 386.298 145.497C372.303 92.1567 341.408 53.604 288.2 35.2519C255.457 23.8974 221.525 21.9169 187.197 25.6138C159.075 28.6504 132.537 36.9683 109.3 53.7361C66.1263 84.631 44.8695 128.465 38.0039 179.692C35.0993 201.345 36.1555 223.526 35.4954 245.575C35.2313 253.365 34.4391 260.759 28.7619 266.964C26.6494 269.208 25.4611 272.641 24.6689 275.81C20.0479 295.482 31.2704 313.306 51.2069 317.267C58.2045 318.72 62.2974 322.152 64.938 328.754C70.0872 341.561 75.5004 354.368 81.5737 366.778C96.097 396.089 113.129 423.815 137.686 445.996C166.205 471.874 199.08 482.965 237.369 475.175C265.623 469.497 287.276 452.994 305.76 431.869C332.166 401.634 349.462 366.118 363.853 329.15C366.89 321.36 371.379 317.267 379.697 315.683C404.254 310.798 413.76 283.732 398.577 263.927C396.861 261.551 395.144 258.514 395.144 255.609C394.748 242.539 394.88 229.336 394.88 216.133Z" fill="black"/>
</svg>
