<?xml version="1.0" encoding="utf-8"?>
<!-- Generator: Adobe Illustrator 22.1.0, SVG Export Plug-In . SVG Version: 6.00 Build 0)  -->
<svg version="1.1" id="图层_1" xmlns="http://www.w3.org/2000/svg" xmlns:xlink="http://www.w3.org/1999/xlink" x="0px" y="0px"
	 viewBox="0 0 83 93" style="enable-background:new 0 0 83 93;" xml:space="preserve">
<path d="M31.1,0c7,0,14,0,21.1,0c0.2,0.1,0.4,0.1,0.6,0.2C55.2,0.7,57.3,2,58.9,4c1.5,1.9,2.1,4,2.1,6.4c0,1,0,2,0,3
	c0.5,0,0.9,0,1.2,0c5.8,0,11.5,0,17.3,0c2.1,0,2.6,0.3,3.4,2.2c0,0.2,0,0.5,0,0.7c-0.5,1.7-1.7,2.3-3.5,2.2c-1.3-0.1-2.5,0-3.8,0
	c0,0.5,0,0.9,0,1.2c0,5.6,0,11.2,0,16.8c0,14,0,28.1,0,42.1c0,8-6,14.1-13.9,14.2c-13.5,0.1-27,0-40.5,0c-2,0-3.9-0.4-5.7-1.2
	c-5.4-2.7-8.1-7.1-8.1-13.1c0-19.6,0-39.2,0-58.8c0-0.4,0-0.8,0-1.2c-1.6,0-3.1,0-4.6,0c-1.9-0.1-3-1.8-2.4-3.5
	c0.4-1.1,1.3-1.6,2.8-1.6c6,0,11.9,0,17.9,0c0.3,0,0.7,0,1.1,0c0-1.3,0-2.4,0-3.5c0.1-4.1,2.7-7.7,6.6-9.2C29.5,0.4,30.3,0.2,31.1,0
	z M70.5,18.6c-19.3,0-38.6,0-57.9,0c0,0.3,0,0.7,0,0.9c0,19.7,0,39.3,0,59c0,0.9,0.1,1.8,0.3,2.7c1.1,4.1,4.4,6.5,8.8,6.5
	c13.2,0,26.4,0,39.6,0c1.4,0,2.9-0.3,4.2-0.9c3.5-1.7,5-4.7,5-8.5c0-19.5,0-39,0-58.5C70.5,19.3,70.5,18.9,70.5,18.6z M27.2,13.3
	c9.7,0,19.1,0,28.7,0c0-1,0-1.9,0-2.8c-0.1-3.3-2.1-5.3-5.4-5.3c-5.9-0.1-11.9,0-17.8,0c-2.5,0-4.4,1.3-5,3.3
	C27.3,10,27.4,11.7,27.2,13.3z"/>
<path d="M44.1,53.1c0,7.5,0,15,0,22.5c0,1.9-1.3,3.1-3.1,2.8c-1.1-0.2-1.9-1.1-2.1-2.2c0-0.1,0-0.2,0-0.4c0-15.1,0-30.2,0-45.3
	c0-0.9,0.4-1.7,1.1-2.2c1.6-1.1,3.9-0.1,4,1.9c0.1,0.9,0,1.8,0,2.6C44.1,39.5,44.1,46.3,44.1,53.1z"/>
<path d="M22.2,53c0-6.5,0-13.1,0-19.6c0-1.8,1.1-3,2.8-2.8c1.2,0.1,2.2,0.9,2.3,2.1c0,0.3,0.1,0.7,0.1,1c0,12.9,0,25.8,0,38.7
	c0,1.3-0.3,2.4-1.6,3c-1.7,0.7-3.5-0.5-3.5-2.4c0-2,0-4,0-6.1C22.2,62.3,22.2,57.6,22.2,53z"/>
<path d="M61,53.2c0,6.5,0,13.1,0,19.6c0,2-1.6,3.3-3.4,2.7c-1-0.3-1.6-1.1-1.7-2.1c0-0.4,0-0.8,0-1.2c0-12.7,0-25.4,0-38.1
	c0-0.4,0-0.7,0-1.1c0.1-1.3,1.1-2.3,2.5-2.3c1.4,0,2.5,0.9,2.6,2.2c0,0.3,0,0.7,0,1C61,40.3,61,46.7,61,53.2z"/>
</svg>
